PathFileType	4	(X/Y/Z)	SUBJ36_1_walk_RCNL2025.trc
DataRate	CameraRate	NumFrames	NumMarkers	Units	OrigDataRate	OrigDataStartFrame	OrigNumFrames
100	100	5	25	mm	100	284	378
Frame#	Time	R_Shoulder			L_Shoulder			C7			J_Notch			R_Elbow			L_Elbow			R_Wrist			L_Wrist			R_Asis			L_Asis			Sacral			Thoracic			Sternum			R_Thigh_Lateral			R_Knee_Lateral			R_Shank_Lateral			R_Ankle_Lateral			R_Heel			R_Toe			L_Thigh_Lateral			L_Knee_Lateral			L_Shank_Lateral			L_Ankle_Lateral			L_Heel			L_Toe		
		X1	Y1	Z1	X2	Y2	Z2	X3	Y3	Z3	X4	Y4	Z4	X5	Y5	Z5	X6	Y6	Z6	X7	Y7	Z7	X8	Y8	Z8	X9	Y9	Z9	X10	Y10	Z10	X11	Y11	Z11	X12	Y12	Z12	X13	Y13	Z13	X14	Y14	Z14	X15	Y15	Z15	X16	Y16	Z16	X17	Y17	Z17	X18	Y18	Z18	X19	Y19	Z19	X20	Y20	Z20	X21	Y21	Z21	X22	Y22	Z22	X23	Y23	Z23	X24	Y24	Z24	X25	Y25	Z25
284	2.83000000	2120.810303	1353.380249	10.652248	2092.135254	1318.746338	-332.678497	2041.384766	1405.040527	-144.224304	2176.821045	1294.449097	-154.852966	2053.817383	1041.814575	104.776497	2025.512329	1005.243225	-369.397919	2186.379639	838.688995	115.303665	2124.592407	791.512817	-366.155685	2166.232666	910.402893	-20.597870	2160.670654	902.406921	-245.850113	1943.232788	897.178711	-131.677475	1958.824829	1150.780884	-129.239136	2204.634766	1112.935181	-142.189194	2037.401489	504.259735	28.864826	2028.856201	443.247650	-21.092798	1991.354980	234.251312	15.114161	1961.492798	68.865005	-56.592564	1906.576172	49.844967	-94.084694	2075.922119	40.854107	-93.738266	2211.798340	528.172852	-336.753357	2238.053711	457.854401	-270.207977	2143.656494	278.379669	-296.493805	2093.248047	117.416702	-223.352005	2058.056885	95.549026	-161.659805	2205.503662	52.524853	-227.418137
285	2.84000000	2132.437744	1352.149170	10.854212	2101.895264	1317.812744	-332.533447	2052.222412	1404.091919	-143.497131	2187.590820	1293.322876	-155.017990	2066.592773	1040.524414	105.449127	2033.541016	1004.582397	-368.938690	2201.430298	838.825043	114.586903	2131.566162	790.405121	-366.805359	2177.125732	909.335632	-21.015293	2170.895020	901.888245	-246.226395	1953.849609	896.167786	-131.433472	1969.436279	1149.951660	-128.506210	2215.170410	1111.742310	-142.529770	2041.167358	504.798431	29.480436	2031.838379	443.877380	-20.596920	1992.254883	235.066956	15.419502	1962.227783	70.043861	-56.364712	1906.951660	51.255272	-94.236397	2076.152344	40.877323	-93.650169	2224.945068	528.652649	-336.713013	2251.902832	457.984009	-270.063995	2168.731934	271.642242	-296.612183	2128.117188	108.305779	-223.328766	2094.430664	84.419678	-161.450714	2244.027344	50.426262	-228.004471
286	2.85000000	2144.040283	1350.771484	11.025533	2111.867432	1316.735718	-332.407318	2063.143066	1403.013184	-142.903793	2198.414551	1292.070679	-155.181091	2079.384277	1039.048950	105.961029	2041.796509	1003.814453	-368.520203	2216.239868	838.669128	113.844311	2138.543457	789.107330	-367.452759	2187.982910	908.237854	-21.411522	2181.162598	901.193298	-246.670532	1964.504395	894.999023	-131.225464	1980.092896	1148.973145	-127.961655	2225.740479	1110.420776	-142.848770	2045.355225	505.394806	30.066706	2035.193481	444.571991	-20.117332	1993.288696	236.011292	15.718994	1963.158691	71.440384	-56.025078	1907.355957	52.806252	-94.402008	2076.415771	40.901806	-93.536110	2237.016113	528.556396	-336.549469	2264.772705	457.582947	-269.818024	2193.654541	265.116394	-296.679199	2163.357910	99.899002	-223.352203	2131.157959	74.144623	-161.356552	2282.537842	49.175892	-228.219452
287	2.86000000	2155.627441	1349.281372	11.155979	2122.052979	1315.542725	-332.309418	2074.135742	1401.816406	-142.435440	2209.294678	1290.709351	-155.346283	2092.188965	1037.421753	106.308128	2050.296631	1002.967407	-368.157227	2230.794189	838.230072	113.071873	2145.528442	787.631958	-368.097977	2198.818848	907.128540	-21.769329	2191.501709	900.311279	-247.157700	1975.214111	893.689148	-131.087738	1990.807739	1147.850098	-127.590050	2236.348877	1108.987183	-143.155701	2049.962891	506.040344	30.613218	2038.927490	445.321533	-19.657188	1994.487549	237.101959	16.026402	1964.294922	73.063889	-55.567177	1907.798584	54.501041	-94.553696	2076.697510	40.917343	-93.411293	2247.957764	527.799805	-336.229675	2276.682373	456.664368	-269.453949	2218.276367	258.960205	-296.664734	2198.736572	92.387123	-223.382812	2168.012207	64.907265	-161.346237	2320.816650	48.928650	-228.077286
288	2.87000000	2167.200195	1347.709839	11.233684	2132.443604	1314.258545	-332.249481	2085.186768	1400.514404	-142.086761	2220.231445	1289.256226	-155.519730	2105.004395	1035.680176	106.492294	2059.051514	1002.058716	-367.859131	2245.083374	837.521149	112.270615	2152.529053	785.996368	-368.743652	2209.654053	906.026489	-22.081110	2201.940674	899.245544	-247.669998	1985.996582	892.249695	-131.045761	2001.588257	1146.601074	-127.374290	2247.003662	1107.459351	-143.460434	2054.988281	506.719391	31.113085	2043.050781	446.113983	-19.219982	1995.884644	238.341064	16.351046	1965.633911	74.912033	-54.996552	1908.289185	56.340252	-94.667397	2076.985107	40.922352	-93.284767	2257.743652	526.303040	-335.710205	2287.694092	455.270966	-268.955109	2242.462646	253.306274	-296.543091	2233.952148	85.935051	-223.378342	2204.738037	56.864285	-161.372177	2358.584717	49.796974	-227.631226
